<svg width="176" height="176" viewBox="0 0 176 176" fill="none" xmlns="http://www.w3.org/2000/svg">
<circle cx="88" cy="88" r="88" fill="#F1C40F"/>
<path d="M118.542 62.75C118.542 65.119 116.619 67.0417 114.25 67.0417H62.75C60.381 67.0417 58.4583 65.119 58.4583 62.75C58.4583 60.381 60.381 58.4583 62.75 58.4583H62.8487C63.8744 47.1498 72.9041 38.1201 84.2083 37.0987V49.875C84.2083 52.244 86.131 54.1667 88.5 54.1667C90.869 54.1667 92.7917 52.244 92.7917 49.875V37.0987C104.096 38.1244 113.126 47.1541 114.151 58.4583H114.25C116.619 58.4583 118.542 60.381 118.542 62.75ZM62.7586 76.2516C63.0933 90.1609 74.5092 101.375 88.5 101.375C102.491 101.375 113.907 90.1609 114.241 76.2516L114.25 75.625H62.75L62.7586 76.2516ZM127.091 135.176C125.31 119.533 108.735 105.667 88.5 105.667C68.2648 105.667 51.6904 119.533 49.9093 135.176C49.772 136.399 50.1368 137.627 50.9522 138.549C51.7633 139.472 52.9392 140 54.171 140H122.838C124.069 140 125.241 139.472 126.056 138.549C126.872 137.627 127.237 136.399 127.099 135.176H127.091Z" fill="white"/>
</svg>
