<svg width="131" height="50" viewBox="0 0 131 50" fill="none" xmlns="http://www.w3.org/2000/svg">
<path d="M33.181 38.4569C32.1176 38.4569 31.2221 38.148 30.4946 37.5301C29.767 36.9122 29.4032 36.1258 29.4032 35.1709V16.0448C29.4032 15.146 29.739 14.3877 30.4106 13.7699C31.1382 13.0958 32.0616 12.7588 33.181 12.7588C34.3003 12.7588 35.1678 13.0958 35.7835 13.7699C36.4551 14.3877 36.7909 15.1741 36.7909 16.129V35.0867C36.7909 36.0416 36.4271 36.856 35.6995 37.5301C35.0279 38.148 34.1884 38.4569 33.181 38.4569ZM33.181 8.54598C32.0057 8.54598 30.9983 8.18087 30.1588 7.45065C29.3192 6.66426 28.8995 5.68127 28.8995 4.50168C28.8995 3.43444 29.3192 2.50762 30.1588 1.72123C30.9983 0.93484 32.0057 0.541644 33.181 0.541644C34.3003 0.541644 35.2518 0.93484 36.0353 1.72123C36.8748 2.50762 37.2946 3.43444 37.2946 4.50168C37.2946 5.68127 36.8748 6.66426 36.0353 7.45065C35.2518 8.18087 34.3003 8.54598 33.181 8.54598Z" fill="#34495E"/>
<path d="M47.3622 38.4569C46.4107 38.4569 45.5432 38.0918 44.7597 37.3616C43.9761 36.6314 43.5844 35.7888 43.5844 34.8339C43.5844 33.9352 43.9482 33.0926 44.6757 32.3062L50.4684 26.324C50.8042 25.8747 50.9721 25.4815 50.9721 25.1444C50.9721 24.6951 50.8042 24.3019 50.4684 23.9649L44.5918 18.0669C44.0321 17.3367 43.7523 16.6065 43.7523 15.8763C43.7523 14.9214 44.172 14.1069 45.0115 13.4328C45.8511 12.7026 46.7745 12.3375 47.7819 12.3375C48.8453 12.3375 49.6848 12.7307 50.3005 13.5171L55.0017 18.9937C55.3375 19.3308 55.6733 19.4993 56.0091 19.4993C56.4569 19.4993 56.7927 19.3308 57.0165 18.9937L61.6339 13.5171C62.2495 12.7307 63.089 12.3375 64.1524 12.3375C65.1598 12.3375 66.0833 12.7026 66.9228 13.4328C67.7623 14.1069 68.182 14.9494 68.182 15.9605C68.182 16.6346 67.9022 17.3367 67.3425 18.0669L61.466 23.9649C61.1301 24.3019 60.9622 24.6951 60.9622 25.1444C60.9622 25.4815 61.1301 25.8747 61.466 26.324L67.2586 32.3062C67.9862 33.0926 68.35 33.9352 68.35 34.8339C68.35 35.7888 67.9582 36.6314 67.1746 37.3616C66.3911 38.0918 65.5236 38.4569 64.5722 38.4569C63.5647 38.4569 62.7252 38.0356 62.0536 37.1931L57.0165 31.2109C56.7927 30.8739 56.4569 30.7053 56.0091 30.7053C55.6733 30.7053 55.3375 30.8739 55.0017 31.2109L49.8807 37.1931C49.4889 37.6424 49.0692 37.9514 48.6214 38.1199C48.2297 38.3446 47.8099 38.4569 47.3622 38.4569Z" fill="#34495E"/>
<path d="M72.5836 15.7078C72.5836 14.5843 72.9753 13.7418 73.7589 13.1801C74.5424 12.6184 75.4379 12.3375 76.4453 12.3375C77.2289 12.3375 77.9005 12.5622 78.4602 13.0116C79.0758 13.4047 79.4956 13.9665 79.7194 14.6967L84.9244 27.4194C85.2042 28.1496 85.596 28.5147 86.0997 28.5147C86.6034 28.5147 86.9672 28.1496 87.1911 27.4194L91.7244 14.6967C92.0043 13.9103 92.452 13.3205 93.0676 12.9273C93.7393 12.5341 94.4388 12.3375 95.1664 12.3375C96.1179 12.3375 96.9854 12.6464 97.7689 13.2643C98.6084 13.8822 99.0282 14.6967 99.0282 15.7078C99.0282 16.2695 98.9162 16.8031 98.6924 17.3086L85.596 47.6408C85.2042 48.4834 84.7005 49.0732 84.0849 49.4102C83.5252 49.8034 82.9375 50 82.3219 50C81.3145 50 80.391 49.6349 79.5515 48.9047C78.768 48.2306 78.3762 47.4161 78.3762 46.4612C78.3762 45.9557 78.4881 45.5063 78.712 45.1131L83.2454 37.0246C82.2939 36.7437 81.5384 36.0416 80.9787 34.9182L72.8354 17.2244C72.6675 16.7188 72.5836 16.2133 72.5836 15.7078Z" fill="#34495E"/>
<path d="M109.603 38.4569C108.539 38.4569 107.644 38.148 106.916 37.5301C106.189 36.9122 105.825 36.1258 105.825 35.1709V3.82763C105.825 2.9289 106.161 2.1706 106.832 1.55272C107.56 0.878669 108.483 0.541644 109.603 0.541644C110.666 0.541644 111.534 0.878669 112.205 1.55272C112.877 2.1706 113.213 2.95699 113.213 3.91189V35.0867C113.213 36.0416 112.849 36.856 112.121 37.5301C111.45 38.148 110.61 38.4569 109.603 38.4569Z" fill="#34495E"/>
<path d="M126.386 38.4569C125.323 38.4569 124.428 38.148 123.7 37.5301C122.972 36.9122 122.609 36.1258 122.609 35.1709V16.0448C122.609 15.146 122.944 14.3877 123.616 13.7699C124.344 13.0958 125.267 12.7588 126.386 12.7588C127.506 12.7588 128.373 13.0958 128.989 13.7699C129.66 14.3877 129.996 15.1741 129.996 16.129V35.0867C129.996 36.0416 129.633 36.856 128.905 37.5301C128.233 38.148 127.394 38.4569 126.386 38.4569ZM126.386 8.54598C125.211 8.54598 124.204 8.18087 123.364 7.45065C122.525 6.66426 122.105 5.68127 122.105 4.50168C122.105 3.43444 122.525 2.50762 123.364 1.72123C124.204 0.93484 125.211 0.541644 126.386 0.541644C127.506 0.541644 128.457 0.93484 129.241 1.72123C130.08 2.50762 130.5 3.43444 130.5 4.50168C130.5 5.68127 130.08 6.66426 129.241 7.45065C128.457 8.18087 127.506 8.54598 126.386 8.54598Z" fill="#34495E"/>
<path fill-rule="evenodd" clip-rule="evenodd" d="M6.49651 0C3.18473 0 0.5 2.69448 0.5 6.01829V21.7149H22.0497V17.8373C22.0498 17.851 22.0499 17.8648 22.0499 17.8786V4.08963C22.0499 4.10921 22.0498 4.12868 22.0497 4.14807V0H6.49651ZM22.0497 4.14807C22.0252 7.82067 19.6825 8.13176 17.4602 7.61831C12.748 2.13167 8.07252 5.30348 6.31862 7.58958H11.5085C12.7104 7.68232 13.1586 8.30117 13.2325 10.7021C13.1178 13.6829 12.5778 13.8928 11.5085 13.9412H6.31862C10.9015 19.4713 15.573 16.2379 17.3808 13.9337C20.6565 14.671 22.031 15.8536 22.0497 17.8373V4.14807Z" fill="#34495E"/>
<path d="M0.5 21.7149L7.68323 21.7149V34.3964C7.68323 36.3872 6.07521 38.0011 4.09162 38.0011C2.10802 38.0011 0.5 36.3872 0.5 34.3964V21.7149Z" fill="#34495E"/>
</svg>
