<svg width="32" height="32" viewBox="0 0 32 32" fill="none" xmlns="http://www.w3.org/2000/svg">
<path d="M16 6.66667C10.8533 6.66667 6.66667 10.8533 6.66667 16C6.66667 21.1467 10.8533 25.3333 16 25.3333C21.1467 25.3333 25.3333 21.1467 25.3333 16C25.3333 10.8533 21.1467 6.66667 16 6.66667ZM19.3333 12C20.4373 12 21.3333 12.896 21.3333 14C21.3333 15.104 20.4373 16 19.3333 16C18.2293 16 17.3333 15.104 17.3333 14C17.3333 12.896 18.2293 12 19.3333 12ZM12.6667 12C13.7707 12 14.6667 12.896 14.6667 14C14.6667 15.104 13.7707 16 12.6667 16C11.5627 16 10.6667 15.104 10.6667 14C10.6667 12.896 11.5627 12 12.6667 12ZM20.74 19.776C20.5 19.936 18.336 21.3333 16 21.3333C13.664 21.3333 11.5 19.936 11.26 19.776C10.6467 19.368 10.4813 18.54 10.8907 17.9267C11.2987 17.316 12.124 17.148 12.7373 17.5547C13.2067 17.864 14.7067 18.6653 16 18.6653C17.5533 18.6653 19.244 17.5667 19.26 17.556C19.8747 17.1453 20.7 17.312 21.1093 17.9253C21.5187 18.5373 21.3533 19.368 20.74 19.776ZM9.33333 32H6.66667C2.99067 32 0 29.0093 0 25.3333V22.6667C0 21.9307 0.596 21.3333 1.33333 21.3333C2.07067 21.3333 2.66667 21.9307 2.66667 22.6667V25.3333C2.66667 27.5387 4.46133 29.3333 6.66667 29.3333H9.33333C10.0707 29.3333 10.6667 29.9307 10.6667 30.6667C10.6667 31.4027 10.0707 32 9.33333 32ZM25.3333 32H22.6667C21.9293 32 21.3333 31.4027 21.3333 30.6667C21.3333 29.9307 21.9293 29.3333 22.6667 29.3333H25.3333C27.5387 29.3333 29.3333 27.5387 29.3333 25.3333V22.6667C29.3333 21.9307 29.9293 21.3333 30.6667 21.3333C31.404 21.3333 32 21.9307 32 22.6667V25.3333C32 29.0093 29.0093 32 25.3333 32ZM30.6667 10.6667C29.9293 10.6667 29.3333 10.0693 29.3333 9.33333V6.66667C29.3333 4.46133 27.5387 2.66667 25.3333 2.66667H22.6667C21.9293 2.66667 21.3333 2.06933 21.3333 1.33333C21.3333 0.597333 21.9293 0 22.6667 0H25.3333C29.0093 0 32 2.99067 32 6.66667V9.33333C32 10.0693 31.404 10.6667 30.6667 10.6667ZM1.33333 10.6667C0.596 10.6667 0 10.0693 0 9.33333V6.66667C0 2.99067 2.99067 0 6.66667 0H9.33333C10.0707 0 10.6667 0.597333 10.6667 1.33333C10.6667 2.06933 10.0707 2.66667 9.33333 2.66667H6.66667C4.46133 2.66667 2.66667 4.46133 2.66667 6.66667V9.33333C2.66667 10.0693 2.07067 10.6667 1.33333 10.6667Z" fill="#2C3E50"/>
</svg>
