<svg width="24" height="21" viewBox="0 0 24 21" fill="none" xmlns="http://www.w3.org/2000/svg">
<path d="M5.00068 20.5C5.53112 20.5 6.03982 20.2893 6.4149 19.9142C6.78997 19.5391 7.00068 19.0304 7.00068 18.5V12.5C7.00068 11.9696 6.78997 11.4609 6.4149 11.0858C6.03982 10.7107 5.53112 10.5 5.00068 10.5V9.5C5.00068 7.64348 5.73818 5.86301 7.05094 4.55025C8.36369 3.2375 10.1442 2.5 12.0007 2.5C13.8572 2.5 15.6377 3.2375 16.9504 4.55025C18.2632 5.86301 19.0007 7.64348 19.0007 9.5V10.5C18.4702 10.5 17.9615 10.7107 17.5865 11.0858C17.2114 11.4609 17.0007 11.9696 17.0007 12.5V18.5H14.0007C13.7355 18.5 13.4811 18.6054 13.2936 18.7929C13.106 18.9804 13.0007 19.2348 13.0007 19.5C13.0007 19.7652 13.106 20.0196 13.2936 20.2071C13.4811 20.3946 13.7355 20.5 14.0007 20.5H19.0007C20.1467 20.4966 21.2568 20.0996 22.145 19.3755C23.0333 18.6513 23.6458 17.6441 23.8801 16.5222C24.1144 15.4004 23.9562 14.2322 23.4321 13.2131C22.9079 12.194 22.0495 11.3858 21.0007 10.924V9.5C21.0007 7.11305 20.0525 4.82387 18.3646 3.13604C16.6768 1.44821 14.3876 0.5 12.0007 0.5C9.61373 0.5 7.32455 1.44821 5.63672 3.13604C3.94889 4.82387 3.00068 7.11305 3.00068 9.5V10.924C1.95184 11.3858 1.09348 12.194 0.569305 13.2131C0.0451257 14.2322 -0.113056 15.4004 0.121241 16.5222C0.355537 17.6441 0.96809 18.6513 1.85635 19.3755C2.74462 20.0996 3.85467 20.4966 5.00068 20.5Z" fill="#34495E"/>
</svg>
